<?xml version="1.0" encoding="UTF-8" standalone="no"?>
<svg xmlns="http://www.w3.org/2000/svg" width="96" height="96" viewBox="0 0 96 96" role="img" aria-labelledby="title desc">
  <title>Punch Button (Black/White)</title>
  <desc>Touch control: Punch (fist)</desc>
  <defs>
    <filter id="shadow" x="-50%" y="-50%" width="200%" height="200%">
      <feOffset dy="2" result="off"/>
      <feGaussianBlur in="off" stdDeviation="2" result="blur"/>
      <feColorMatrix type="matrix" values="0 0 0 0 0
                                           0 0 0 0 0
                                           0 0 0 0 0
                                           0 0 0 0.36 0" result="shadow"/>
      <feMerge>
        <feMergeNode in="shadow"/>
        <feMergeNode in="SourceGraphic"/>
      </feMerge>
    </filter>
  </defs>
  <g filter="url(#shadow)">
    <circle cx="48" cy="48" r="40" fill="#000000" stroke="#2a2a2a" stroke-width="2"/>
    
  <path d="M30 50 h30 a10 10 0 0 1 10 10 v6 a8 8 0 0 1 -8 8 H32 a8 8 0 0 1 -8 -8 v-8
           a8 8 0 0 1 8 -8z" fill="#FFFFFF"/>
  <rect x="30" y="38" width="10" height="12" rx="3" fill="#FFFFFF"/>
  <rect x="40" y="38" width="10" height="12" rx="3" fill="#FFFFFF"/>
  <rect x="50" y="38" width="10" height="12" rx="3" fill="#FFFFFF"/>
  <path d="M30 48 a8 8 0 0 1 -6 -8 a8 8 0 0 1 8 -8 h10 v10" fill="#FFFFFF"/>

  </g>
</svg>
